<svg version="1.1" id="Layer_1" xmlns="http://www.w3.org/2000/svg" xmlns:xlink="http://www.w3.org/1999/xlink" x="0px" y="0px" viewBox="0 0 500 500" style="width: 166px;" xml:space="preserve" data-imageid="doctor-47" imageName="Doctor" class="illustrations_image">
<style type="text/css">
	.st0_doctor-47{fill:#F88949;}
	.st1_doctor-47{opacity:0.32;fill:url(#SVGID_1_);enable-background:new    ;}
	.st2_doctor-47{opacity:0.32;fill:url(#SVGID_00000183229399652166372550000003423102352733236100_);enable-background:new    ;}
	.st3_doctor-47{opacity:0.32;fill:url(#SVGID_00000040572606732811024840000005992859454196086696_);enable-background:new    ;}
	.st4_doctor-47{fill:#68E1FD;}
	.st5_doctor-47{opacity:0.22;fill:#272322;enable-background:new    ;}
	.st6_doctor-47{opacity:0.37;fill:#EDEDED;enable-background:new    ;}
	.st7_doctor-47{fill:#272322;}
	.st8_doctor-47{fill:#F15A24;}
	.st9_doctor-47{fill:#EDEDED;}
	.st10_doctor-47{fill:#DBDBDB;}
	.st11_doctor-47{fill:#9E9E9E;}
	.st12_doctor-47{fill:#F0B387;}
	.st13_doctor-47{fill:#42210B;}
</style>
<polygon id="Base_doctor-47" class="st0_doctor-47" points="27.1,310.1 205.6,415.4 472.9,258.1 293.5,154.6 "/>
<g id="Shadow_doctor-47">
	
		<linearGradient id="SVGID_1_-doctor-47" gradientUnits="userSpaceOnUse" x1="287.2788" y1="-1945.171" x2="323.6088" y2="-1982.7811" gradientTransform="matrix(1 0 0 1 0 2273.8401)">
		<stop offset="0" style="stop-color:#272322;stop-opacity:0"/>
		<stop offset="0.99" style="stop-color:#272322"/>
	</linearGradient>
	<polyline class="st1_doctor-47" points="336.5,317.9 291.2,345.7 254.1,322.8 311.9,291 &#9;"/>
	
		<linearGradient id="SVGID_00000164485672102283651460000002410727661900634039_-doctor-47" gradientUnits="userSpaceOnUse" x1="69.817" y1="-1948.3136" x2="130.0869" y2="-2000.5536" gradientTransform="matrix(1 0 0 1 0 2273.8401)">
		<stop offset="0" style="stop-color:#272322;stop-opacity:0"/>
		<stop offset="0.99" style="stop-color:#272322"/>
	</linearGradient>
	
		<polyline style="opacity:0.32;fill:url(#SVGID_00000164485672102283651460000002410727661900634039_);enable-background:new    ;" points="&#10;&#9;&#9;151.2,294.2 80.1,336.5 39.5,312.6 103.2,273 &#9;"/>
	
		<linearGradient id="SVGID_00000047022128249414277970000009626687097814643898_-doctor-47" gradientUnits="userSpaceOnUse" x1="162.2663" y1="-1893.8344" x2="208.7263" y2="-1934.1144" gradientTransform="matrix(1 0 0 1 0 2273.8401)">
		<stop offset="0" style="stop-color:#272322;stop-opacity:0"/>
		<stop offset="0.99" style="stop-color:#272322"/>
	</linearGradient>
	
		<polyline style="opacity:0.32;fill:url(#SVGID_00000047022128249414277970000009626687097814643898_);enable-background:new    ;" points="&#10;&#9;&#9;224.4,355.1 169.3,389.1 139.6,370.8 197.4,339 &#9;"/>
</g>
<g id="Medicine_Box_doctor-47">
	<path class="st4_doctor-47 targetColor" d="M279,112.4l-31.7-16.7c-0.7-0.6-1.6-1-2.5-1.3l0,0c-1.9-0.6-3.9-0.3-5.6,0.7l-141,80.4&#10;&#9;&#9;c-2.3,1.3-3.7,3.7-3.7,6.3l0.7,96c0,2,0.8,3.9,2.3,5.2l0,0c0.9,0.8,2,1.4,3.2,1.7l31.2,16.8c0,0,11.9-28.1,5.4-34.1&#10;&#9;&#9;c-0.4-0.4-0.9-0.6-1.4-0.8l110.6-64.1c2.2-1.3,3.6-3.7,3.6-6.3v-72l1,5.6L279,112.4z" style="fill: rgb(104, 225, 253);"/>
	<path class="st5_doctor-47" d="M279,112.4l-31.7-16.7c-0.7-0.6-1.6-1-2.5-1.3l0,0c-1.9-0.6-3.9-0.3-5.6,0.7l-141,80.4&#10;&#9;&#9;c-2.3,1.3-3.7,3.7-3.7,6.3l0.7,96c0,2,0.8,3.9,2.3,5.2l0,0c0.9,0.8,2,1.4,3.2,1.7l31.2,16.8c0,0,11.9-28.1,5.4-34.1&#10;&#9;&#9;c-0.4-0.4-0.9-0.6-1.4-0.8l110.6-64.1c2.2-1.3,3.6-3.7,3.6-6.3v-72l1,5.6L279,112.4z"/>
	<path class="st4_doctor-47 targetColor" d="M130.4,192.9l140.7-81c3.5-2,7.9-0.8,9.9,2.7c0.6,1.1,0.9,2.3,1,3.5l0.4,95c0,2.6-1.3,5-3.6,6.3l-140,82&#10;&#9;&#9;c-3.4,2-7.9,0.9-9.9-2.6c0,0,0,0,0,0c-0.6-1.1-1-2.3-1-3.6l-1.1-96C126.8,196.6,128.1,194.2,130.4,192.9z" style="fill: rgb(104, 225, 253);"/>
	<path class="st6_doctor-47" d="M130.4,192.9l140.7-81c3.5-2,7.9-0.8,9.9,2.7c0.6,1.1,0.9,2.3,1,3.5l0.4,95c0,2.6-1.3,5-3.6,6.3l-140,82&#10;&#9;&#9;c-3.4,2-7.9,0.9-9.9-2.6c0,0,0,0,0,0c-0.6-1.1-1-2.3-1-3.6l-1.1-96C126.8,196.6,128.1,194.2,130.4,192.9z"/>
	<ellipse class="st7_doctor-47" cx="156" cy="159.4" rx="8" ry="3.5"/>
	<ellipse class="st7_doctor-47" cx="211.3" cy="132.5" rx="8" ry="3.5"/>
	<path class="st7_doctor-47" d="M203.3,130.5c0,1,0.1,2,0.3,2.9c2,0.5,4.2-0.9,6.1-1.2c2.6-0.4,8.4,2.5,9.6,0.2c0-3.4-1.2-10.2-3.9-12.6&#10;&#9;&#9;c-5.6-4.8-13.8-1.5-19.3,1.4c-3.6,1.9-7.1,3.8-10.7,5.7c-4.3,2.4-8.7,4.8-13,7.2c-4,2.2-7.8,4.7-12,6.6c-1.8,0.8-3.5,1.8-5.1,3&#10;&#9;&#9;c-4.9,3.6-7.6,9.5-7.3,15.6h16v-7.2c-0.3-2.4,0.8-4.7,2.8-6c3.5-2.3,33.2-18.2,34.8-17.7S203.1,128.7,203.3,130.5z"/>
	<polygon class="st8_doctor-47" points="193.8,176 193.8,243.6 217.4,229.1 217.4,163 &#9;"/>
	<polygon class="st8_doctor-47" points="177.7,206.9 177.7,229.9 233.6,197.1 233.6,174.6 &#9;"/>
</g>
<g id="Character_doctor-47">
	<path class="st9_doctor-47" d="M300.7,182.7c0,0,0.9-40.3,2.6-44.9s5.1-19.5,6.9-21.3s3-8.2,8.8-6.7c3.2,1,6.2,2.2,9.2,3.7l-7.2,41.2l-3,29.3&#10;&#9;&#9;L300.7,182.7z"/>
	<path class="st10_doctor-47" d="M293.3,164.1c-7,0.5-19.8-19.9-19.8-19.9c7.1-3.8,7.4-12,7.4-12l17.5,16.1"/>
	<path class="st11_doctor-47" d="M273.5,144.2c0,0-3.3-0.7-0.7-6.9s6.3-6.8,8.2-5.1S279.9,144.6,273.5,144.2z"/>
	<path class="st12_doctor-47" d="M275.8,144c2.5-1.5,4.4-3.9,5.2-6.7c-0.3-0.3-0.5-0.7-0.7-1.1c0.1-1,0.2-1.9,0.3-2.9c0.4-2.7,1.1-5.3,2.2-7.8&#10;&#9;&#9;c0.7-1.9-2.4-2.8-3-0.8c-0.7,1.9-1.4,3.8-1.9,5.8l-1-11.2c-0.2-2-3.3-2-3.1,0l0.8,7.9c-0.4-2.8-0.8-5.7-1-8.6c-0.2-2-3.3-2-3.1,0&#10;&#9;&#9;c0,0.5,0.1,1,0.2,1.6c-1-0.5-2.4-0.1-2.2,1.3c0.1,0.8,0.2,1.6,0.3,2.4c-0.9-0.1-1.7,0.6-1.8,1.5c0,0,0,0,0,0c0,0.2,0,0.3,0,0.5&#10;&#9;&#9;C268.2,132.7,270.9,139.1,275.8,144z"/>
	<path class="st13_doctor-47" d="M307,276.6c0,0-0.9,11.7-2.9,13.4s-10.1,7.9-11.5,9s-0.1,4.4,4.7,4.4s13.9-5.6,13.9-5.6l6.7-2.5&#10;&#9;&#9;c0,0,0.9-11.4-0.5-18.3S307,276.6,307,276.6z"/>
	<path class="st13_doctor-47" d="M329.7,295.5c0,0-4.7,22.9-1.6,24.6s10.1-2,11.2-6s0.7-27.2,0-27.3"/>
	<path class="st4_doctor-47 targetColor" d="M300.7,196.3l1.2,84.7c0,0,10.5,3.6,20.4,0l-2-80.3l5.7,98.6c5.7,2.4,12.1,2.4,17.7,0L341.9,189l-40.1-11.1&#10;&#9;&#9;L300.7,196.3z" style="fill: rgb(104, 225, 253);"/>
	<path class="st10_doctor-47" d="M315.3,109.6c0,0-11-3.2-16.4,9.4c-7.3,17-7.7,114.3-7.7,114.3c3.3,3.2,7.5,5.5,12,6.6&#10;&#9;&#9;c0,0,0.9-100.4,1.7-106.8C306.3,122.7,315.3,109.6,315.3,109.6z"/>
	<path class="st9_doctor-47" d="M306.9,110.4c0,0-6.2,7.4-5.7,7.4s2.2,2.2,2.2,2.2l-3.5,3.4l4.5,47.6c0,0-3.3-34.5,11-61.2&#10;&#9;&#9;C315.3,109.7,309.2,109,306.9,110.4z"/>
	<path class="st10_doctor-47" d="M325.9,112.4c0,0,11,3.8,13.9,14c3,10.4,3.4,115.4,3.4,116.5s-7,5.5-12.9,6.4s-14.6-2.5-14.6-2.5l-1.6-61.2&#10;&#9;&#9;c0,0,0.8-35.2,1.6-41.9S325.9,112.4,325.9,112.4z"/>
	<path class="st11_doctor-47" d="M330.9,197.1c-0.3-17.3-0.5-34.7-0.5-52.1c0-0.5-0.4-0.9-0.9-0.9s-0.9,0.4-0.9,0.9c-0.1,17.5,0.1,35,0.5,52.6&#10;&#9;&#9;L330.9,197.1z"/>
	<path class="st13_doctor-47" d="M327,230c0,0,24-22.8,25.7-21.8s1.5,35.5,1.2,36.5s-16.8,17.9-18.8,18.4s-9.7,0-9.7,0L327,230z"/>
	<path class="st13_doctor-47" d="M334.3,226.4c0,0-2.8-15.3,5.4-18.2s6,8.9,6,8.9l2.9-3.4c0,0-0.7-11.8-9.3-8.6s-10,14.6-8.5,23.1"/>
	<path class="st12_doctor-47" d="M342.7,193.6c-2.9,1.7-6.2,2.9-9.5,3.3c-0.6,2.4-1.5,4.7-2.6,6.9c-0.6,2.7-0.7,5.2,2,5c0.3,0,0.6-0.2,0.8-0.6&#10;&#9;&#9;c0.1,0.7,0.2,1.4,0.3,2.2c0,0.1,0.1,0.3,0.2,0.4c0.2,0.7,0.9,1.1,1.5,0.9c0.2,0,0.4-0.1,0.6-0.2c0.1,0.6,0.5,1.1,1.1,1.3&#10;&#9;&#9;c0.6,0.2,1.3-0.1,1.6-0.7c0.4,0.7,1.3,1,2.1,0.6c0.5-0.3,0.8-0.7,1-1.2c0.2-0.1,0.3-0.2,0.4-0.3c2.1-3.7,1.7-7.6,0.6-11.6&#10;&#9;&#9;C342.8,197.6,342.7,195.6,342.7,193.6z"/>
	<path class="st9_doctor-47" d="M325.9,112l4.4,2.6l-1.6,9.2l-5.4,0.7l1.8,5.2c0,0-5.8,12.7-6.7,14.9s-3.7,23.2-3.7,23.2s0.6-22.8,1.4-25.7&#10;&#9;&#9;S320.6,120.8,325.9,112z"/>
	<ellipse transform="matrix(0.9564 -0.292 0.292 0.9564 -24.5348 94.72)" class="st11_doctor-47" cx="305" cy="129.5" rx="3.3" ry="3.6"/>
	<path class="st11_doctor-47" d="M305.8,127.3c-0.3-0.2,0.3-19.7,11.5-18.5s10.3,9.5,9.9,13.8l1.8,0.3c0,0,2.1-14.9-12.3-14.9&#10;&#9;&#9;s-12,20.6-12,20.6"/>
	<path class="st13_doctor-47" d="M308.1,98.9c-2.1-1.2-3.3-3.5-3.2-5.9c0-4.5,6.9-7.8,9.8-8.2c3.7-0.5,15.9,1,16.6,10.1&#10;&#9;&#9;c0.5,6.3-3.8,17.6-7,17.7"/>
	<path class="st12_doctor-47" d="M325,106.3c-0.3-1.4-0.7-2.8-1.2-4.2c-0.2-0.5-0.3-0.9-0.5-1.4c-0.9-2.2-2.2-1.6-4.2-1.6&#10;&#9;&#9;c-1.6,0-3.1-0.1-4.7-0.5c-2.3-0.6-4.6-1.6-6.7-2.8c-0.3,4.9-0.5,19.3,7.5,20.5c4.9,0.8,7.5-1.2,9-3.5&#10;&#9;&#9;C324.5,110.6,324.7,108.5,325,106.3z"/>
	<path class="st12_doctor-47" d="M323.2,105.8c0,0,1.9-4.9,3.4-2.5c1.6,2.7-1.9,4.6-1.9,4.6"/>
	<path class="st13_doctor-47" d="M309.6,108c-1.7-0.1-3.2-1.3-3.6-3c-0.6-2.1,0.3-4.2,2-4.8l0,0c1.8-0.5,3.8,0.7,4.4,2.8c0.3,1,0.3,2-0.1,3&#10;&#9;&#9;c-0.3,0.9-1,1.5-1.9,1.8C310.1,107.9,309.8,108,309.6,108z M308.2,100.6c-1.6,0.5-2.4,2.4-1.8,4.3s2.4,3.1,4,2.6&#10;&#9;&#9;c0.8-0.3,1.4-0.9,1.7-1.6c0.4-0.9,0.4-1.8,0.1-2.7C311.5,101.3,309.7,100.1,308.2,100.6L308.2,100.6z"/>
	<path class="st13_doctor-47" d="M318.2,110.1c-0.6,0-1.3-0.2-1.8-0.6c-1.7-1.2-2.4-3.4-1.6-5.4c0.3-0.9,1-1.5,1.9-1.8l0,0&#10;&#9;&#9;c0.9-0.3,1.9-0.1,2.6,0.4c1.7,1.2,2.4,3.4,1.6,5.4c-0.3,0.9-1.1,1.6-2,1.9C318.7,110.1,318.4,110.1,318.2,110.1z M317.5,102.6&#10;&#9;&#9;c-0.3,0-0.5,0-0.8,0.1l0,0c-0.8,0.3-1.4,0.9-1.7,1.6c-0.7,1.8-0.1,3.8,1.5,4.9c0.7,0.5,1.5,0.6,2.3,0.4c0.8-0.3,1.4-0.8,1.7-1.6&#10;&#9;&#9;c0.7-1.8,0.1-3.8-1.5-4.9C318.7,102.7,318.1,102.6,317.5,102.6z"/>
	
		<rect x="320.2" y="102.9" transform="matrix(0.8282 -0.5605 0.5605 0.8282 -2.0676 199.3488)" class="st13_doctor-47" width="7.7" height="0.3"/>
	<path class="st13_doctor-47" d="M314.5,105.7c-0.3-0.4-1.4-0.5-1.8-0.5v-0.3c0.2,0,1.6,0,2.1,0.6L314.5,105.7z"/>
	<path class="st7_doctor-47" d="M327.2,140.8c1.7,0,4.5,0,6-1s1.2-2.3,1.1-4c-0.4-4-0.7-11.4-5.3-13.1c-4-1.4-7.4,1.5-8.8,5&#10;&#9;&#9;c-0.9,2.3-2.4,6-1.9,8.6c0.5,2,2.6,3.1,4.4,3.9c0.3,0.1,0.6-0.3,0.3-0.5c-2.1-0.9-4.2-2.1-4.1-4.6c0.2-2.2,0.7-4.3,1.5-6.4&#10;&#9;&#9;c1.4-3.8,5-7.2,9.1-5c3.3,1.8,3.7,8.1,4.1,11.4c0.2,2.1,0.5,3.5-1.9,4.6c-1.5,0.5-3,0.6-4.6,0.6c-0.2,0-0.3,0.1-0.3,0.3&#10;&#9;&#9;C327,140.7,327.1,140.8,327.2,140.8L327.2,140.8z"/>
	<path class="st13_doctor-47" d="M321.7,139.5c0,0.3-0.4,0.8,0,1s1.8,0.8,1.9,0.4s0.3-1.1,0-1.4S321.7,138.4,321.7,139.5z"/>
	<path class="st13_doctor-47" d="M326.5,140.4c0,0.3-0.2,0.9,0.2,1s1.9,0.4,2,0s0.1-1.2-0.3-1.4S326.3,139.4,326.5,140.4z"/>
	<path class="st13_doctor-47" d="M270.5,130.3c1.5-1.3,3.7-1.5,5.5-0.5c0.2,0.1,0.4,0,0.5-0.1c0.1-0.1,0.1-0.3-0.1-0.4c0,0,0,0,0,0&#10;&#9;&#9;c-2-1.1-4.5-0.9-6.3,0.6C269.7,130.1,270.2,130.6,270.5,130.3L270.5,130.3z"/>
	<path class="st13_doctor-47" d="M277.2,131c-2.3,1-3.6,3.3-3.4,5.8c0,0.2,0.1,0.3,0.3,0.3c0.2,0,0.3-0.1,0.3-0.3c-0.3-2.1,0.9-4.2,2.8-5.1&#10;&#9;&#9;C277.7,131.5,277.5,130.9,277.2,131L277.2,131z"/>
	<path class="st13_doctor-47" d="M273.6,120.2l0.7,8c0,0.4,0.7,0.4,0.7,0l-0.7-8C274.2,119.8,273.5,119.8,273.6,120.2z"/>
	<path class="st13_doctor-47" d="M270.3,121.2l1.1,6.6c0,0.4,0.7,0.2,0.6-0.2l-1.1-6.6C270.9,120.6,270.2,120.8,270.3,121.2z"/>
	<path class="st13_doctor-47" d="M268.3,124.9l1.2,3.3c0.1,0.4,0.8,0.2,0.6-0.2l-1.2-3.3C268.8,124.4,268.2,124.5,268.3,124.9z"/>
	<path class="st11_doctor-47" d="M341.5,192.6c-3.6,2.1-7.6,3.5-11.7,4.2c-1.1,0.2-0.7,1.9,0.5,1.8c4.3-0.7,8.4-2.2,12.2-4.4&#10;&#9;&#9;c0.4-0.3,0.6-0.8,0.3-1.2C342.5,192.4,342,192.3,341.5,192.6z"/>
</g>
<g id="Medicine_Bottle_doctor-47">
	<path class="st13_doctor-47" d="M193.2,287.8v7.4c-0.3,1.3-1,2.6-1.9,3.5c-1.5,1.3-7.6,3.9-7.5,10c0.1,5.4-0.1,42.3-0.1,42.3h44.4v-42.3&#10;&#9;&#9;c0,0-1.4-6.3-5.8-9.4c-1-0.6-2-1.3-2.8-2.1c-1.3-1.7-0.6-3.6-0.4-6.5c0-1.2,0-2.5-0.1-3.7"/>
	<polyline class="st10_doctor-47" points="191.2,279.9 191.2,287.5 221.5,287.5 221.5,279.9 &#9;"/>
	<ellipse class="st10_doctor-47" cx="206.4" cy="287.5" rx="15.1" ry="6.6"/>
	<ellipse class="st9_doctor-47" cx="206.4" cy="279.9" rx="15.1" ry="6.6"/>
	<ellipse class="st13_doctor-47" cx="205.8" cy="350.4" rx="22.2" ry="8.5"/>
	<path class="st9_doctor-47" d="M227.9,310.5c-0.6,0.1-17.9,6.4-34.2,2.2v29.2c0,0,18.9,6.9,34.2-2.5V310.5z"/>
</g>
</svg>